<?xml version="1.0" encoding="UTF-8"?>
<!-- Generator: visioncortex VTracer 0.6.2 -->
<svg version="1.1" xmlns="http://www.w3.org/2000/svg" width="1280" height="1280">
<path d="M0 0 C422.4 0 844.8 0 1280 0 C1280 422.4 1280 844.8 1280 1280 C857.6 1280 435.2 1280 0 1280 C0 857.6 0 435.2 0 0 Z " fill="#FBFDFD" transform="translate(0,0)"/>
<path d="M0 0 C1.68683395 -0.00151062 1.68683395 -0.00151062 3.40774536 -0.00305176 C22.67410849 0.00856364 41.5660035 0.90591166 60.6875 3.25 C62.47075684 3.45882812 62.47075684 3.45882812 64.29003906 3.671875 C133.50638348 11.94337176 200.84641302 35.66501866 260.6875 71.25 C261.58936035 71.7847998 262.4912207 72.31959961 263.42041016 72.87060547 C275.22423035 79.91396762 286.54502525 87.45135218 297.56298828 95.66796875 C299.65747883 97.22764454 301.76293376 98.77136918 303.87109375 100.3125 C312.83464324 106.90249732 321.33588985 113.9044048 329.6875 121.25 C330.44546875 121.90742188 331.2034375 122.56484375 331.984375 123.2421875 C333.89516527 124.90075346 335.79169225 126.57433729 337.6875 128.25 C338.36562744 128.84329102 339.04375488 129.43658203 339.74243164 130.04785156 C346.76044524 136.26250401 353.40498539 142.81432415 360.02026367 149.45239258 C361.87892108 151.31643244 363.74289614 153.17503512 365.60742188 155.03320312 C371.51277176 160.93495868 377.31882658 166.84812798 382.6875 173.25 C383.56398789 174.2600843 384.44153978 175.26924662 385.3203125 176.27734375 C426.50956551 224.37451224 458.44234457 279.66040462 479.6875 339.25 C480.03022949 340.2095459 480.37295898 341.1690918 480.72607422 342.15771484 C499.45527809 395.13563044 508.16304653 450.62571808 508.00555801 506.73662567 C507.99990481 508.78448058 507.99709247 510.83232716 507.99447632 512.88018799 C507.9568589 533.14772744 507.46812788 553.14266943 504.6875 573.25 C504.43009033 575.19616211 504.43009033 575.19616211 504.16748047 577.18164062 C495.43551602 642.5162225 474.24705921 706.45530183 440.6875 763.25 C439.67804794 764.9841786 438.66892762 766.71855035 437.66015625 768.453125 C424.01140636 791.74260527 408.11344194 813.63867082 390.6875 834.25 C390.26114258 834.75982422 389.83478516 835.26964844 389.39550781 835.79492188 C378.60345522 848.69070323 367.1088443 860.89511416 355.25 872.8125 C354.61223633 873.45493652 353.97447266 874.09737305 353.31738281 874.75927734 C349.5060008 878.55776296 345.57435053 882.16326851 341.50219727 885.68041992 C339.25664676 887.62265646 337.0662124 889.62182509 334.875 891.625 C330.13594777 895.89086396 325.28567417 899.9790783 320.30029297 903.95410156 C319.20207021 904.83653668 318.11015004 905.72686022 317.02392578 906.62402344 C294.77208662 925.00250797 269.80530107 941.32297957 244.32226562 954.84960938 C241.61382375 956.28915928 238.92421885 957.7604094 236.234375 959.234375 C175.29929474 992.24443776 105.72001747 1010.79112148 36.6875 1015.25 C35.88908691 1015.30639648 35.09067383 1015.36279297 34.26806641 1015.42089844 C-52.069096 1021.4241819 -138.5467376 1004.11086111 -285.3125 928.25 C-286.04339844 927.74581543 -286.77429688 927.24163086 -287.52734375 926.72216797 C-300.58092759 917.68617441 -313.15349629 908.21724391 -325.2109375 897.8828125 C-327.94543092 895.54496349 -330.7456302 893.30067752 -333.5625 891.0625 C-344.8294942 881.86928589 -355.14039827 871.49944047 -365.4375 861.25 C-366.12344238 860.56873047 -366.80938477 859.88746094 -367.51611328 859.18554688 C-371.98444744 854.70297189 -376.18665584 850.0476054 -380.3125 845.25 C-381.3581091 844.05878348 -382.40495269 842.86864923 -383.453125 841.6796875 C-390.69745814 833.41688974 -397.67126743 825.00524543 -404.3125 816.25 C-405.13451904 815.1669458 -405.13451904 815.1669458 -405.97314453 814.06201172 C-414.25864193 803.09407586 -422.0187998 791.8989528 -429.3125 780.25 C-430.00730469 779.15558594 -430.70210938 778.06117188 -431.41796875 776.93359375 C-437.07873727 767.90574135 -442.23063405 758.61152978 -447.3125 749.25 C-447.96822998 748.05141357 -447.96822998 748.05141357 -448.63720703 746.82861328 C-461.33208732 723.54151477 -471.61689538 699.29262118 -480.3125 674.25 C-480.89427002 672.5786499 -480.89427002 672.5786499 -481.48779297 670.87353516 C-499.35032103 618.94862655 -507.7867053 564.65783497 -507.625 509.8125 C-507.62284485 508.49273163 -507.6206897 507.17296326 -507.61846924 505.8132019 C-507.57418907 485.795755 -507.10570575 466.09619987 -504.3125 446.25 C-504.16331116 445.17407593 -504.16331116 445.17407593 -504.0111084 444.07641602 C-496.31879588 388.86369422 -480.59437596 336.43829889 -456.3125 286.25 C-455.87583008 285.33428223 -455.43916016 284.41856445 -454.98925781 283.47509766 C-435.74395889 243.14543676 -409.74719428 204.50657756 -379.47265625 171.62109375 C-378.29978388 170.33369135 -377.13419529 169.03871678 -376.01098633 167.70776367 C-370.31475337 161.00129944 -364.06115707 154.84796814 -357.83374023 148.64086914 C-355.87954376 146.6920313 -353.93074853 144.73790728 -351.98242188 142.78320312 C-345.93092056 136.72812707 -339.88705176 130.74319185 -333.3125 125.25 C-332.25570891 124.33816769 -331.19969031 123.42543913 -330.14453125 122.51171875 C-322.71123636 116.17466657 -315.12573698 110.11106009 -307.3125 104.25 C-306.75401367 103.82783203 -306.19552734 103.40566406 -305.62011719 102.97070312 C-289.86569803 91.08563365 -273.41467453 80.09995708 -256.3125 70.25 C-255.71260254 69.90195313 -255.11270508 69.55390625 -254.49462891 69.1953125 C-249.80287033 66.48105154 -245.07113958 63.84507039 -240.3125 61.25 C-239.48282715 60.79753906 -238.6531543 60.34507812 -237.79833984 59.87890625 C-213.82996023 46.89878212 -189.04970245 36.20392504 -163.3125 27.25 C-162.31138184 26.8998584 -161.31026367 26.5497168 -160.27880859 26.18896484 C-121.24086761 12.69890789 -80.43729318 4.66583667 -39.3125 1.25 C-38.23266846 1.1557373 -37.15283691 1.06147461 -36.0402832 0.96435547 C-24.03924186 0.02981732 -12.03149412 0.00750361 0 0 Z " fill="#FCD713" transform="translate(637.3125,155.75)"/>
<path d="M0 0 C2.8125 2.4375 2.8125 2.4375 5 5 C5.33 5.33 5.66 5.66 6 6 C6.96404889 13.51396554 5.31386463 18.78787421 1.625 25.25 C0.94932983 26.47879883 0.94932983 26.47879883 0.26000977 27.73242188 C-13.78816016 52.75686918 -34.07223328 74.89197275 -57 92 C-57.56589844 92.42667969 -58.13179687 92.85335937 -58.71484375 93.29296875 C-107.86081504 130.18082249 -172.58277599 147.51841864 -233.5625 147.375 C-234.4444101 147.37445618 -235.32632019 147.37391235 -236.23495483 147.37335205 C-286.78659146 147.23160312 -337.50969405 134.96369056 -383 113 C-383.78439453 112.62149902 -384.56878906 112.24299805 -385.37695312 111.85302734 C-410.20948994 99.69907447 -433.19150165 83.2659546 -453 64 C-453.63824707 63.38753418 -454.27649414 62.77506836 -454.93408203 62.14404297 C-464.11349599 53.31641493 -472.45978319 44.26392778 -480 34 C-480.80468151 32.9179643 -481.60936888 31.83593295 -482.4140625 30.75390625 C-489.48457636 21.14750137 -489.48457636 21.14750137 -489 14 C-487.57065535 10.5060464 -486.33823564 9.22549043 -483.1875 7.125 C-477.97880714 5.28663782 -473.73597507 6.927787 -468.80078125 9.01171875 C-467.78016602 9.43251709 -466.75955078 9.85331543 -465.70800781 10.28686523 C-464.58749023 10.74907471 -463.46697266 11.21128418 -462.3125 11.6875 C-378.63037765 45.15701145 -287.28610765 61.47886202 -50.7355957 22.38110352 C-36.12690209 15.97776528 -21.65785323 8.96658478 -7.86645508 0.93945312 C-5.0072777 -0.49967239 -3.11189934 -0.70724985 0 0 Z " fill="#402A0B" transform="translate(874,733)"/>
<path d="M0 0 C15.05607002 12.5385778 32.53112991 30.19305346 36 50.3125 C36.7952926 61.83701276 36.32226251 73.44308684 28.61328125 82.625 C24.2310863 87.20879714 20.80724935 90.02221119 14.3359375 90.515625 C0.18831655 90.73959789 -10.53974934 85.62947355 -21.16796875 76.4375 C-25.78509647 71.53510352 -28.84413399 65.57384372 -32.0078125 59.6796875 C-36.44395345 52.18173947 -40.67084336 48.88256287 -49 46.3125 C-59.07038881 43.89560669 -67.01030577 45.72636957 -76.09375 50.38671875 C-83.43755977 55.15718534 -88.07920687 63.25058317 -93 70.3125 C-98.41068388 78.00323189 -102.94284291 84.0207625 -112.49633789 85.9375 C-116.69042016 86.56569214 -120.82801233 86.64119926 -125.0625 86.625 C-126.3319043 86.64916992 -126.3319043 86.64916992 -127.62695312 86.67382812 C-135.58922585 86.67996712 -142.90795197 84.71226985 -149 79.3125 C-153.8794709 71.32653365 -154.05318553 62.953625 -152.375 53.96484375 C-146.16771399 29.38509959 -128.34049102 8.41679461 -107 -4.6875 C-70.53407299 -24.90399534 -33.92662799 -25.95031932 0 0 Z " fill="#402A0B" transform="translate(854,513.6875)"/>
<path d="M0 0 C13.48804391 12.0731419 29.64036208 28.3573033 33 47 C33.63817795 58.80629202 33.90522631 70.38553557 26 80 C20.48911449 85.37701785 16.95758729 88.13067375 9.0625 88.3125 C-4.80982188 88.11300865 -16.39822398 81.73488105 -26.0078125 71.95703125 C-28.82371229 68.38187052 -30.86080517 64.44303318 -33 60.4375 C-37.31499433 52.40805179 -40.82128706 47.78293855 -49.6171875 44.7109375 C-60.4902807 41.46683428 -69.18552273 42.92786872 -79.12890625 48.109375 C-86.13487004 52.69509676 -90.38761771 60.19387383 -95 67 C-100.50250618 74.96080177 -105.65329571 81.70948 -115.51391602 83.64257812 C-119.70276371 84.24480468 -123.83626097 84.32866771 -128.0625 84.3125 C-129.3319043 84.33666992 -129.3319043 84.33666992 -130.62695312 84.36132812 C-138.04428207 84.36704696 -144.97432977 82.86679466 -150.6796875 77.70703125 C-154.56991411 72.67735957 -156.72977482 65.45547916 -156.30859375 59.125 C-154.04698853 43.55141468 -146.98517653 29.08530927 -137 17 C-136.33613281 16.17371094 -135.67226563 15.34742188 -134.98828125 14.49609375 C-118.16865745 -5.37033805 -92.4730989 -18.82424113 -66.875 -22.75 C-41.83943652 -24.36519764 -19.04662314 -16.41969025 0 0 Z " fill="#402A0B" transform="translate(541,516)"/>
</svg>
